<svg xmlns="http://www.w3.org/2000/svg" width="7" height="70" viewBox="0 0 7 70">
  <metadata><?xpacket begin="﻿" id="W5M0MpCehiHzreSzNTczkc9d"?>
<x:xmpmeta xmlns:x="adobe:ns:meta/" x:xmptk="Adobe XMP Core 5.6-c138 79.159824, 2016/09/14-01:09:01        ">
   <rdf:RDF xmlns:rdf="http://www.w3.org/1999/02/22-rdf-syntax-ns#">
      <rdf:Description rdf:about=""/>
   </rdf:RDF>
</x:xmpmeta>
                                                                                                    
                                                                                                    
                                                                                                    
                                                                                                    
                                                                                                    
                                                                                                    
                                                                                                    
                                                                                                    
                                                                                                    
                                                                                                    
                                                                                                    
                                                                                                    
                                                                                                    
                                                                                                    
                                                                                                    
                                                                                                    
                                                                                                    
                                                                                                    
                                                                                                    
                                                                                                    
                           
<?xpacket end="w"?></metadata>
<defs>
    <style>
      .cls-1 {
        fill: #f4c20a;
        fill-rule: evenodd;
      }
    </style>
  </defs>
  <path id="Icon" class="cls-1" d="M1063,472.852a11.679,11.679,0,0,1,2.53-7.415,9.841,9.841,0,0,0,0-12.254,12.13,12.13,0,0,1,0-14.829,9.838,9.838,0,0,0,0-12.252,12.13,12.13,0,0,1,0-14.829,9.316,9.316,0,0,0,2.14-6.126,1.165,1.165,0,0,1,2.33,0,11.672,11.672,0,0,1-2.53,7.414,9.84,9.84,0,0,0,0,12.253,12.128,12.128,0,0,1,0,14.828,9.841,9.841,0,0,0,0,12.254,12.13,12.13,0,0,1,0,14.829,9.319,9.319,0,0,0-2.14,6.127A1.165,1.165,0,0,1,1063,472.852Z" transform="translate(-1063 -404)"/>
</svg>
