<svg xmlns="http://www.w3.org/2000/svg" width="99" height="10" viewBox="0 0 99 10">
  <metadata><?xpacket begin="﻿" id="W5M0MpCehiHzreSzNTczkc9d"?>
<x:xmpmeta xmlns:x="adobe:ns:meta/" x:xmptk="Adobe XMP Core 5.6-c138 79.159824, 2016/09/14-01:09:01        ">
   <rdf:RDF xmlns:rdf="http://www.w3.org/1999/02/22-rdf-syntax-ns#">
      <rdf:Description rdf:about=""/>
   </rdf:RDF>
</x:xmpmeta>
                                                                                                    
                                                                                                    
                                                                                                    
                                                                                                    
                                                                                                    
                                                                                                    
                                                                                                    
                                                                                                    
                                                                                                    
                                                                                                    
                                                                                                    
                                                                                                    
                                                                                                    
                                                                                                    
                                                                                                    
                                                                                                    
                                                                                                    
                                                                                                    
                                                                                                    
                                                                                                    
                           
<?xpacket end="w"?></metadata>
<defs>
    <style>
      .cls-1 {
        fill: #f4c20a;
        fill-rule: evenodd;
      }
    </style>
  </defs>
  <path id="Icon" class="cls-1" d="M1340.38,763c-5.29,0-8.05-1.923-10.49-3.62-2.35-1.635-4.38-3.047-8.67-3.047s-6.31,1.412-8.66,3.046c-2.44,1.7-5.2,3.621-10.49,3.621a16.319,16.319,0,0,1-10.48-3.621c-2.35-1.634-4.38-3.046-8.67-3.046s-6.31,1.412-8.66,3.046c-2.44,1.7-5.2,3.621-10.49,3.621a16.319,16.319,0,0,1-10.48-3.621c-2.35-1.634-4.38-3.046-8.67-3.046a1.667,1.667,0,0,1,0-3.333c5.29,0,8.05,1.923,10.49,3.62,2.35,1.635,4.37,3.047,8.66,3.047s6.32-1.412,8.67-3.047a16.324,16.324,0,0,1,10.48-3.62c5.29,0,8.05,1.923,10.49,3.62,2.35,1.635,4.37,3.047,8.66,3.047s6.32-1.412,8.67-3.047c2.44-1.7,5.2-3.62,10.48-3.62s8.05,1.923,10.49,3.62c2.35,1.635,4.38,3.047,8.67,3.047A1.667,1.667,0,0,1,1340.38,763Z" transform="translate(-1243 -753)"/>
</svg>
